<?xml version="1.0" encoding="UTF-8" standalone="no"?>
<svg width="360px" height="343px" viewBox="0 0 360 343" version="1.1" xmlns="http://www.w3.org/2000/svg" xmlns:xlink="http://www.w3.org/1999/xlink" xmlns:sketch="http://www.bohemiancoding.com/sketch/ns">
    <!-- Generator: Sketch 3.2.2 (9983) - http://www.bohemiancoding.com/sketch -->
    <title>coffee_bean_L</title>
    <desc>Created with Sketch.</desc>
    <defs></defs>
    <g id="Page-1" stroke="none" stroke-width="1" fill="none" fill-rule="evenodd" sketch:type="MSPage">
        <g id="180---iPhone-6-Plus" sketch:type="MSArtboardGroup" fill="#775832">
            <path d="M226.812655,247.947606 C227.200311,248.052421 227.589581,248.153571 227.980453,248.251026 C273.113372,259.503927 322.513994,217.235397 338.319839,153.841617 C352.504872,96.9485559 334.811062,42.3756804 298.409512,23.6476137 L298.409512,23.6476137 C295.636428,26.5250703 279.969208,43.5679822 275.971753,65.2761746 C270.322371,95.9551604 279.333721,132.429692 272.266793,160.773589 C265.199865,189.117486 234.81308,231.840499 234.81308,231.840499 C234.498323,232.289912 233.806961,232.549946 233.274176,232.417108 L225.21867,230.408645 C226.131624,236.329646 226.662475,242.191315 226.812655,247.947606 L226.812655,247.947606 Z M171.37626,131.444762 C172.181389,125.382479 173.343428,119.250467 174.879091,113.091262 C190.684935,49.6974816 240.085558,7.42895192 285.218477,18.6818524 C287.037848,19.1354725 288.822511,19.6691409 290.571272,20.2798193 L284.147712,18.6782477 C283.61009,18.5442035 282.894724,18.7845103 282.548986,19.2246075 C282.548986,19.2246075 266.406004,38.9536145 260.787004,61.4901915 C254.43718,86.957947 267.14961,120.272782 257.942111,157.202044 C251.448455,183.246674 233.248272,207.387524 223.083654,219.355623 C218.439838,199.338339 209.500108,178.975229 196.210719,159.996015 C188.72022,149.298473 180.34395,139.749091 171.37626,131.444762 L171.37626,131.444762 Z M226.088045,265.162355 C279.625152,276.857437 336.843983,229.38849 354.663914,157.916652 C372.727736,85.4666182 343.466409,15.7875348 289.306907,2.28405425 C235.147405,-11.2194263 176.598838,36.5661918 158.535016,109.016226 C157.698387,112.371763 156.963274,115.721356 156.327451,119.059699 C116.564443,90.1340718 69.2690743,83.834796 35.8752515,107.217402 C-9.84778517,139.233017 -12.194837,214.770368 30.6329642,275.934806 C73.4607654,337.099245 145.245395,360.729033 190.968432,328.713418 C211.32978,314.456249 223.08927,291.568318 226.088042,265.162355 L226.088045,265.162355 Z M181.275108,314.869917 C219.377638,288.190238 219.886899,223.176465 182.412573,169.657581 C144.938247,116.138696 83.6711058,94.3812244 45.5685752,121.060903 C7.46604469,147.740583 6.9567844,212.754356 44.4311105,266.27324 C81.9054365,319.792124 143.172577,341.549597 181.275108,314.869917 Z M48.812083,128.162525 C48.358207,128.480332 48.0746646,129.168127 48.1887912,129.723051 C48.1887912,129.723051 53.0031766,155.609243 66.8377431,175.367052 C82.4716772,197.694623 116.600076,210.878469 139.269905,243.254339 C161.939733,275.630209 166.327258,323.354051 166.327258,323.354051 C166.382821,323.889408 166.791653,324.068672 167.242285,323.753136 L181.593468,313.704329 C182.043261,313.389381 182.295502,312.699788 182.15665,312.170495 C182.15665,312.170495 168.762736,259.635592 151.363221,234.786508 C133.963706,209.937424 99.7913931,191.762589 79.6571524,166.390805 C64.0095266,146.672744 61.8864603,120.053535 61.8864603,120.053535 C61.8323109,119.513878 61.419347,119.334823 60.9665989,119.651841 L48.812083,128.162525 Z" id="coffee_bean_L" sketch:type="MSShapeGroup"></path>
        </g>
    </g>
</svg>