<?xml version="1.0" encoding="UTF-8" standalone="no"?>
<svg width="654px" height="720px" viewBox="0 0 654 720" version="1.1" xmlns="http://www.w3.org/2000/svg" xmlns:xlink="http://www.w3.org/1999/xlink" xmlns:sketch="http://www.bohemiancoding.com/sketch/ns">
    <!-- Generator: Sketch 3.2.2 (9983) - http://www.bohemiancoding.com/sketch -->
    <title>espresso_machine_L</title>
    <desc>Created with Sketch.</desc>
    <defs></defs>
    <g id="Page-1" stroke="none" stroke-width="1" fill="none" fill-rule="evenodd" sketch:type="MSPage">
        <g id="180---iPhone-6-Plus" sketch:type="MSArtboardGroup" fill="#90785B">
            <path d="M27.25,380.377358 L39.3717606,380.377358 C40.1996411,380.377358 40.875,381.046113 40.875,381.871063 L40.875,473.977993 C40.875,474.800671 40.2019768,475.471698 39.3717606,475.471698 L1.50323935,475.471698 C0.67535889,475.471698 0,474.802944 0,473.977993 L0,381.871063 C0,381.048386 0.673023184,380.377358 1.50323935,380.377358 L13.625,380.377358 L13.625,326.037736 L27.25,326.037736 L27.25,380.377358 L27.25,380.377358 Z M68.125,326.037736 L68.125,244.528302 L531.375,244.528302 L531.375,339.622642 L558.625,339.622642 L558.625,339.622642 L558.625,328.036157 C558.625,326.935565 559.516868,326.037736 560.617042,326.037736 L652.007958,326.037736 C653.101736,326.037736 654,326.932459 654,328.036157 L654,378.378937 C654,379.47953 653.108132,380.377358 652.007958,380.377358 L560.617042,380.377358 C559.523264,380.377358 558.625,379.482635 558.625,378.378937 L558.625,366.792453 L531.375,366.792453 L531.375,366.792453 L531.375,665.660377 L68.125,665.660377 L68.125,339.622642 L27.25,339.622642 L27.25,326.037736 L68.125,326.037736 Z M95.375,339.622642 L95.375,665.660377 L504.125,665.660377 L504.125,366.792453 L504.125,366.792453 L395.125,366.792453 L395.125,339.622642 L504.125,339.622642 L504.125,244.528302 L95.375,244.528302 L95.375,326.037736 L149.875,326.037736 L149.875,339.622642 L95.375,339.622642 Z M299.75,393.962264 L231.625,393.962264 L231.625,339.622642 L395.125,339.622642 L395.125,393.962264 L327,393.962264 L327,420.12465 C327,420.674381 326.551318,421.132075 325.99784,421.132075 L300.75216,421.132075 C300.200239,421.132075 299.75,420.681036 299.75,420.12465 L299.75,393.962264 L299.75,393.962264 Z M390.561462,582.572278 C383.510584,624.090352 377.119112,661.725613 377.119112,661.725613 C376.752214,663.886037 374.658844,665.660377 372.448252,665.660377 L254.817099,665.660377 C252.614641,665.660377 250.509302,663.891676 250.132861,661.709873 L218,475.471698 C218,475.471698 408.75,475.471698 408.75,475.471698 C408.02738,479.726743 404.85827,498.387588 400.785679,522.36845 C407.050616,518.475492 414.449383,516.226415 422.375,516.226415 C444.94964,516.226415 463.25,534.472922 463.25,556.981132 C463.25,579.489342 444.94964,597.735849 422.375,597.735849 C409.522,597.735849 398.054576,591.820954 390.561462,582.572278 L390.561462,582.572278 Z M381.884455,551.368436 C373.970746,596.319931 364.674524,649.124381 364.674524,649.124381 C364.388104,650.751306 362.812751,652.075472 361.157021,652.075472 L265.600991,652.075472 C263.94292,652.075472 262.385269,650.746358 262.11665,649.106814 C262.11665,649.106814 235.894424,489.056604 235.894424,489.056604 C235.894423,489.056604 392.854451,489.056604 392.854451,489.056604 C392.854451,489.056604 388.047472,516.361229 382.404227,548.416023 C382.195774,549.387771 382.022063,550.372361 381.884455,551.368436 L381.884455,551.368436 Z M27.25,27.1698113 L27.25,244.528302 L572.25,244.528302 L572.25,27.1698113 L27.25,27.1698113 Z M54.5,54.3396226 L54.5,217.358491 L545,217.358491 L545,54.3396226 L54.5,54.3396226 Z M27.25,665.660377 L27.25,720 L572.25,720 L572.25,665.660377 L27.25,665.660377 Z M517.75,0 L517.75,27.1698113 L531.375,27.1698113 L531.375,0 L517.75,0 Z M68.125,0 L68.125,27.1698113 L81.75,27.1698113 L81.75,0 L68.125,0 Z M422.375,584.150943 C437.42476,584.150943 449.625,571.986605 449.625,556.981132 C449.625,541.975659 437.42476,529.811321 422.375,529.811321 C407.32524,529.811321 395.125,541.975659 395.125,556.981132 C395.125,571.986605 407.32524,584.150943 422.375,584.150943 Z M204.375,244.528302 L204.375,339.622642 L422.375,339.622642 L422.375,244.528302 L204.375,244.528302 Z M231.625,244.528302 L231.625,312.45283 L395.125,312.45283 L395.125,244.528302 L231.625,244.528302 Z M258.875,339.622642 L258.875,366.792453 L367.875,366.792453 L367.875,339.622642 L258.875,339.622642 Z M136.25,244.528302 L136.25,326.037736 L149.875,326.037736 L149.875,244.528302 L136.25,244.528302 Z M313.375,190.188679 C343.47452,190.188679 367.875,165.860003 367.875,135.849057 C367.875,105.83811 343.47452,81.509434 313.375,81.509434 C283.27548,81.509434 258.875,105.83811 258.875,135.849057 C258.875,165.860003 283.27548,190.188679 313.375,190.188679 Z M313.375,176.603774 C335.94964,176.603774 354.25,158.357266 354.25,135.849057 C354.25,113.340847 335.94964,95.0943396 313.375,95.0943396 C290.80036,95.0943396 272.5,113.340847 272.5,135.849057 C272.5,158.357266 290.80036,176.603774 313.375,176.603774 Z M449.625,108.679245 L449.625,163.018868 L476.875,163.018868 L476.875,108.679245 L449.625,108.679245 Z M177.125,108.679245 L177.125,163.018868 L204.375,163.018868 L204.375,108.679245 L177.125,108.679245 Z M122.625,108.679245 L122.625,163.018868 L149.875,163.018868 L149.875,108.679245 L122.625,108.679245 Z" id="espresso_machine_L" sketch:type="MSShapeGroup"></path>
        </g>
    </g>
</svg>