<?xml version="1.0" encoding="UTF-8" standalone="no"?>
<svg width="220px" height="360px" viewBox="0 0 220 360" version="1.1" xmlns="http://www.w3.org/2000/svg" xmlns:xlink="http://www.w3.org/1999/xlink" xmlns:sketch="http://www.bohemiancoding.com/sketch/ns">
    <!-- Generator: Sketch 3.2.2 (9983) - http://www.bohemiancoding.com/sketch -->
    <title>Group</title>
    <desc>Created with Sketch.</desc>
    <defs></defs>
    <g id="Page-1" stroke="none" stroke-width="1" fill="none" fill-rule="evenodd" sketch:type="MSPage">
        <g id="180---iPhone-6-Plus" sketch:type="MSArtboardGroup" transform="translate(-45.000000, 0.000000)" fill="#60472B">
            <g id="Group" sketch:type="MSLayerGroup" transform="translate(43.000000, -2.000000)">
                <g id="Path-1-+-ABOUT-US" transform="translate(30.000000, 0.000000)" sketch:type="MSShapeGroup">
                    <path d="M23.7884267,32.010755 L20.7852983,33.6126165 C20.4484072,33.7923134 20.1267558,33.8556978 19.8203345,33.8027717 C19.5139132,33.7498456 19.2458348,33.6239244 19.016091,33.4250044 L15.1849035,29.9974956 L6.53647119,34.6105485 L7.24902534,39.7015289 C7.29010819,39.9639881 7.24632599,40.2469821 7.11767743,40.5505195 C6.98902887,40.8540568 6.7610752,41.0931033 6.43380957,41.267666 L3.41624302,42.8772287 L0.481076024,17.6253969 L4.45155832,15.5075512 L23.7884267,32.010755 Z M6.06946245,31.3359195 L12.7254346,27.78564 L6.48002128,22.1963267 C6.20022145,21.9499224 5.87887299,21.6545938 5.51596626,21.3103322 C5.15305952,20.9660705 4.7733116,20.5844356 4.37671112,20.1654159 C4.50379873,20.7281931 4.61532135,21.2559897 4.71128231,21.7488216 C4.80724327,22.2416535 4.87737146,22.6802553 4.92166899,23.06464 L6.06946245,31.3359195 Z M26.8572569,32.8297238 L19.0713655,10.4855627 L26.7821098,7.79873016 C28.2449437,7.28900121 29.5424591,6.99283397 30.674695,6.91021957 C31.8069308,6.82760516 32.7950031,6.92807173 33.6389413,7.21162227 C34.4828796,7.49517282 35.1867951,7.94880515 35.750709,8.57253289 C36.3146229,9.19626062 36.7563123,9.96653624 37.0757903,10.8833828 C37.2588619,11.4087668 37.3565931,11.9378865 37.3689867,12.4707577 C37.3813802,13.0036289 37.2980176,13.5352017 37.1188961,14.0654921 C36.9397747,14.5957825 36.6596323,15.1179458 36.2784605,15.6319978 C35.8972888,16.1460497 35.402886,16.6417901 34.7952374,17.1192339 C38.1056342,16.7397314 40.21848,17.8634233 41.1338384,20.4903433 C41.4640853,21.4380949 41.588924,22.3765395 41.5083584,23.3057054 C41.4277927,24.2348713 41.1438163,25.1107156 40.6564206,25.9332646 C40.1690249,26.7558136 39.477991,27.5077956 38.583298,28.1892331 C37.6886051,28.8706705 36.5922713,29.4375281 35.2942638,29.8898228 L26.8572569,32.8297238 Z M27.6002197,21.5844935 L29.8832196,28.1363084 L34.1017231,26.6663579 C34.8743466,26.3971349 35.488459,26.0791749 35.9440787,25.7124684 C36.3996983,25.3457619 36.7307587,24.9531478 36.9372697,24.5346144 C37.1437807,24.1160809 37.244778,23.6765578 37.2402647,23.2160317 C37.2357513,22.7555057 37.1527289,22.2934625 36.9911951,21.8298884 C36.822482,21.345711 36.5935607,20.9373948 36.3044245,20.6049277 C36.0152883,20.2724605 35.6583364,20.027168 35.2335582,19.8690429 C34.8087801,19.7109177 34.3137297,19.6494855 33.7483924,19.6847445 C33.1830551,19.7200035 32.5346877,19.865063 31.8032707,20.1199275 L27.6002197,21.5844935 Z M26.598715,18.7103483 L29.9209796,17.552695 C31.3323052,17.0609143 32.3139208,16.4300599 32.8658557,15.6601131 C33.4177907,14.8901663 33.4981215,13.9437673 33.1068507,12.8208877 C32.7012213,11.6568016 32.0826118,10.9423982 31.2510036,10.6776561 C30.4193955,10.4129141 29.3030961,10.5246369 27.9020721,11.012828 L24.3480216,12.2512478 L26.598715,18.7103483 Z M67.4053189,11.4558255 C67.7479495,13.1562027 67.7818632,14.7880036 67.507061,16.3512773 C67.2322588,17.914551 66.6882125,19.3289649 65.8749057,20.5945616 C65.0615989,21.8601582 63.9929021,22.9351607 62.6687831,23.8196013 C61.3446642,24.7040419 59.8057037,25.3229555 58.0518557,25.6763606 C56.2980076,26.0297657 54.636778,26.055699 53.068117,25.7541614 C51.499456,25.4526237 50.0924837,24.8764752 48.8471578,24.0256986 C47.6018319,23.1749219 46.5497935,22.0821233 45.6910109,20.74727 C44.8322283,19.4124167 44.2315308,17.8948242 43.8889002,16.1944471 C43.5462697,14.49407 43.512356,12.8622691 43.7871582,11.2989954 C44.0619603,9.73572168 44.6086802,8.320769 45.427334,7.0540949 C46.2459879,5.78742079 47.3200318,4.71134085 48.6494978,3.8258228 C49.9789639,2.94030475 51.5205978,2.32085246 53.2744459,1.96744736 C55.028294,1.61404225 56.6873888,1.59132115 58.2517801,1.89928337 C59.8161715,2.20724559 61.2177968,2.78447154 62.4566981,3.63097853 C63.6955995,4.47748552 64.7444257,5.56814932 65.6032082,6.90300265 C66.4619908,8.23785597 67.0626884,9.75544843 67.4053189,11.4558255 L67.4053189,11.4558255 Z M62.977944,12.3479535 C62.7215098,11.0753442 62.3230457,9.96769524 61.7825396,9.02497339 C61.2420335,8.08225154 60.5851996,7.32156338 59.812018,6.74288611 C59.0388365,6.16420884 58.1627182,5.77877247 57.1836368,5.58656545 C56.2045554,5.39435843 55.1482382,5.41246483 54.0146535,5.6408852 C52.8810688,5.86930557 51.8974987,6.26224193 51.0639139,6.81970606 C50.2303291,7.37717019 49.5665064,8.07290882 49.0724257,8.90694283 C48.5783451,9.74097684 48.2620218,10.6977588 48.1234465,11.7773174 C47.9848711,12.856876 48.0437997,14.0329422 48.3002339,15.3055515 C48.5566681,16.5781608 48.9578057,17.685271 49.5036589,18.6269154 C50.0495121,19.5685598 50.7111544,20.325497 51.4886055,20.8977498 C52.2660567,21.4700025 53.1469833,21.8516879 54.1314118,22.0428175 C55.1158403,22.233947 56.174831,22.2153019 57.3084157,21.9868816 C58.4420004,21.7584612 59.422897,21.3660635 60.2511347,20.8096769 C61.0793724,20.2532902 61.7383869,19.5613025 62.2281978,18.7336931 C62.7180088,17.9060836 63.0295238,16.9530526 63.162752,15.8745715 C63.2959803,14.7960903 63.2343782,13.6205628 62.977944,12.3479535 L62.977944,12.3479535 Z M82.8275372,20.7550232 C83.6775346,20.7155542 84.4310391,20.5385962 85.0880731,20.2241439 C85.745107,19.9096916 86.2932943,19.4856301 86.7326514,18.9519466 C87.1720084,18.418263 87.4973264,17.7806752 87.7086152,17.0391638 C87.9199039,16.2976525 88.0045474,15.4746669 87.9625483,14.5701824 L87.3052408,0.414525924 L91.7023212,0.21035073 L92.3596287,14.3660072 C92.4249044,15.7717723 92.2591278,17.0817678 91.862294,18.296033 C91.4654601,19.5102983 90.8621675,20.5703213 90.0523981,21.4761339 C89.2426286,22.3819465 88.2442118,23.1053929 87.0571175,23.6464948 C85.8700233,24.1875967 84.5191269,24.4933109 83.0043878,24.5636467 C81.4896487,24.6339825 80.1162351,24.4547696 78.8841057,24.0260026 C77.6519763,23.5972355 76.5935391,22.9692976 75.7087623,22.1421701 C74.8239855,21.3150425 74.1277822,20.3153606 73.6201315,19.1430944 C73.1124809,17.9708283 72.826022,16.681832 72.7607463,15.2760669 L72.1034388,1.12041042 L76.5005192,0.916235229 L77.1570677,15.0555457 C77.1990667,15.9600302 77.3596111,16.7716307 77.6387055,17.4903714 C77.9178,18.2091122 78.2982048,18.8166605 78.7799314,19.3130346 C79.2616579,19.8094088 79.8441858,20.1836966 80.5275325,20.4359093 C81.2108791,20.688122 81.9775397,20.7944922 82.8275372,20.7550232 L82.8275372,20.7550232 Z M115.822336,3.20923668 L115.53051,6.81380652 L108.435542,6.2393986 L106.817957,26.2194803 L102.430494,25.8642717 L104.048079,5.88419002 L96.9204911,5.30714114 L97.2123167,1.7025713 L115.822336,3.20923668 Z M132.784224,28.4826641 C133.612682,28.6768579 134.385869,28.7124351 135.103807,28.5893968 C135.821745,28.4663585 136.464913,28.2081491 137.033331,27.8147609 C137.601748,27.4213726 138.088843,26.8968831 138.494628,26.2412765 C138.900414,25.58567 139.206623,24.8170962 139.413265,23.9355321 L142.647322,10.1385925 L146.932976,11.1431667 L143.69892,24.9401063 C143.377753,26.310248 142.860478,27.5251538 142.147077,28.58486 C141.433677,29.6445663 140.563797,30.4995045 139.537411,31.1497005 C138.511025,31.7998964 137.352975,32.2231346 136.063226,32.4194277 C134.773477,32.6157209 133.390446,32.540837 131.914091,32.1947738 C130.437737,31.8487105 129.165494,31.3011879 128.097325,30.5521895 C127.029156,29.8031911 126.182475,28.910036 125.557256,27.8726974 C124.932037,26.8353588 124.535351,25.6835326 124.367188,24.4171843 C124.199024,23.150836 124.275524,21.8326107 124.59669,20.462469 L127.830747,6.66552942 L132.116402,7.67010358 L128.886079,21.4511114 C128.679437,22.3326754 128.612203,23.1572658 128.684373,23.9249072 C128.756544,24.6925487 128.956543,25.3808968 129.284377,25.9899722 C129.612211,26.5990476 130.070359,27.118211 130.658834,27.5474779 C131.24731,27.9767448 131.955766,28.2884704 132.784224,28.4826641 L132.784224,28.4826641 Z M164.210767,23.8382078 C164.011056,24.0174179 163.819614,24.1236588 163.636436,24.1569336 C163.453258,24.1902084 163.260193,24.1668077 163.057236,24.0867308 C162.85428,24.0066538 162.656986,23.837924 162.46535,23.5805363 C162.273713,23.3231486 162.043422,23.0299893 161.774468,22.7010496 C161.505515,22.3721098 161.171209,22.0379117 160.771542,21.6984451 C160.371875,21.3589786 159.857466,21.0651305 159.2283,20.816892 C158.660021,20.5926766 158.138296,20.4659889 157.663108,20.4368251 C157.187921,20.4076613 156.757681,20.4577979 156.372375,20.5872364 C155.987069,20.716675 155.656322,20.9233406 155.380124,21.2072394 C155.103925,21.4911382 154.885752,21.8360392 154.725598,22.2419528 C154.521402,22.7594927 154.495846,23.2478234 154.648928,23.7069596 C154.802011,24.1660958 155.068976,24.6115217 155.449832,25.0432507 C155.830689,25.4749796 156.287509,25.9073575 156.820306,26.3403973 C157.353103,26.7734371 157.893572,27.2241597 158.44173,27.6925787 C158.989887,28.1609976 159.511338,28.6599218 160.006099,29.189366 C160.50086,29.7188103 160.899625,30.2983296 161.202406,30.9279415 C161.505187,31.5575534 161.675061,32.2490607 161.712032,33.0024843 C161.749003,33.7559079 161.587318,34.58926 161.226972,35.5025656 C160.834595,36.497054 160.297274,37.361041 159.614992,38.0945525 C158.932711,38.828064 158.137192,39.3878812 157.228412,39.774021 C156.319632,40.1601607 155.320312,40.3522469 154.230422,40.3502854 C153.140533,40.3483238 151.986735,40.1071159 150.768994,39.6266543 C150.068793,39.3503888 149.405776,39.0096345 148.779923,38.6043809 C148.154069,38.1991273 147.579153,37.746541 147.055157,37.2466085 C146.531161,36.7466759 146.067783,36.2120275 145.665008,35.6426473 C145.262233,35.0732671 144.933828,34.4863264 144.679785,33.8818077 L146.641816,32.3866581 C146.809496,32.2886307 146.990998,32.2224455 147.186326,32.1881006 C147.381654,32.1537558 147.57572,32.1746196 147.768529,32.2506927 C148.022225,32.3507888 148.255173,32.5629049 148.467382,32.8870472 C148.67959,33.2111894 148.936063,33.579179 149.236806,33.991027 C149.53755,34.4028749 149.918331,34.8199109 150.379162,35.2421474 C150.839992,35.664384 151.450942,36.0256411 152.21203,36.3259296 C153.379032,36.7863719 154.39128,36.8661844 155.248803,36.5653695 C156.106327,36.2645545 156.739275,35.5966172 157.147668,34.5615374 C157.375887,33.9831105 157.417458,33.4541891 157.272383,32.9747572 C157.127308,32.4953253 156.865348,32.0372148 156.486493,31.6004119 C156.107639,31.163609 155.647816,30.7388419 155.107011,30.3260978 C154.566206,29.9133537 154.021267,29.4813905 153.472178,29.0301952 C152.923089,28.5789999 152.400171,28.0912244 151.903408,27.5668541 C151.406645,27.0424837 151.009882,26.4578905 150.713107,25.8130569 C150.416332,25.1682233 150.258469,24.4462729 150.239516,23.647184 C150.220562,22.8480952 150.409272,21.9462462 150.805653,20.94161 C151.121957,20.1399306 151.590075,19.4216182 152.21002,18.7866513 C152.829966,18.1516845 153.563011,17.6610374 154.409179,17.3146953 C155.255346,16.9683533 156.194988,16.793767 157.228133,16.7909311 C158.261277,16.7880951 159.351186,17.0128911 160.497892,17.4653258 C161.796816,17.9778182 162.914167,18.6532188 163.84998,19.4915478 C164.785793,20.3298769 165.495168,21.2664958 165.978127,22.3014326 L164.210767,23.8382078 Z" id="ABOUT-US"></path>
                </g>
                <path d="M112.366759,165.270563 L109.258269,157.172669 L107.085582,162.83271 C106.990018,163.081663 106.698059,163.217085 106.440052,163.118045 L104.298477,162.295971 C104.033132,162.194115 103.911171,161.908608 104.009681,161.651982 L107.493698,152.575805 L104.069543,143.655575 L102.855349,146.818658 C102.756998,147.074871 102.466173,147.207337 102.208166,147.108298 L100.066591,146.286224 C99.8012463,146.184368 99.6800252,145.896933 99.7794472,145.63793 L102.304972,139.058712 L98.9480985,130.313757 C98.8493966,130.05663 98.9775415,129.765301 99.2355486,129.666261 L101.377124,128.844187 C101.642469,128.742331 101.924748,128.874467 102.024,129.133029 L104.069543,134.461849 L106.862369,127.186289 L106.715505,126.803696 C106.619724,126.55418 106.745809,126.257484 107.003816,126.158444 L107.300662,126.044496 L107.670967,125.079819 C107.769318,124.823606 108.060142,124.69114 108.31815,124.790179 L110.459725,125.612253 C110.72507,125.714109 110.846291,126.001544 110.746869,126.260547 L110.391509,127.186289 L113.815665,136.106519 L116.619681,128.801808 C116.715245,128.552855 117.007204,128.417433 117.265211,128.516473 L117.556791,128.628399 L119.271248,127.970281 C119.536592,127.868425 119.819869,128.003159 119.920352,128.264926 L123.246122,136.928854 L123.798067,135.490989 C123.893847,135.241472 124.186075,135.105351 124.444082,135.204391 L126.585657,136.026465 C126.851002,136.128321 126.972746,136.414394 126.873969,136.671717 L125.010693,141.525717 L126.629234,145.742163 C126.731745,146.009212 126.602019,146.296423 126.344012,146.395462 L124.202437,147.217536 C123.937092,147.319392 123.653816,147.184659 123.553332,146.922891 L123.246122,146.122581 L120.453296,153.39814 L123.579232,161.541481 C123.675012,161.790998 123.548928,162.087694 123.29092,162.186733 L121.149345,163.008807 C120.884,163.110663 120.602107,162.979532 120.50333,162.722209 L118.688726,157.995004 L115.8959,165.270563 L118.167691,171.188781 C118.266393,171.445908 118.138248,171.737237 117.880241,171.836277 L115.738666,172.658351 C115.473321,172.760207 115.191042,172.628071 115.091789,172.369509 L114.13133,169.867427 L113.086144,172.59023 C112.990363,172.839746 112.698136,172.975867 112.440128,172.876827 L110.298553,172.054753 C110.033208,171.952897 109.911465,171.666825 110.010242,171.409502 L112.366759,165.270563 Z M114.13133,160.6737 L111.022839,152.575805 L113.815665,145.300246 L116.924155,153.39814 L114.13133,160.6737 Z M118.688726,148.801277 L115.580235,140.703382 L118.373061,133.427823 L121.481552,141.525717 L118.688726,148.801277 Z M112.051094,140.703382 L108.626939,131.783152 L105.834113,139.058712 L109.258269,147.978942 L112.051094,140.703382 L112.051094,140.703382 Z M84.0550848,130.23867 L113.5,206.670051 L142.944915,130.23867 C154.418501,127.390213 162.921053,117.036673 162.921053,104.700508 C162.921053,90.6242596 151.850668,79.1294048 137.927866,78.4204504 L137.927866,78.4204504 C139.172337,75.3637056 139.857895,72.0206653 139.857895,68.5177665 C139.857895,53.9845468 128.057064,42.2030457 113.5,42.2030457 C98.942936,42.2030457 87.1421053,53.9845468 87.1421053,68.5177665 C87.1421053,72.0206653 87.8276631,75.3637056 89.0721341,78.4204504 C75.1493323,79.1294048 64.0789474,90.6242596 64.0789474,104.700508 C64.0789474,117.036673 72.581499,127.390213 84.0550848,130.23867 L84.0550848,130.23867 Z M111.013696,121.147208 L115.986304,121.147208 L115.986304,121.147208 C115.057749,119.990772 114.224978,118.754377 113.5,117.450014 C112.775022,118.754377 111.942251,119.990772 111.013696,121.147208 L111.013696,121.147208 Z M111.004277,121.158933 L115.995723,121.158933 L115.995723,121.158933 C120.658395,126.959135 127.731823,130.744969 135.698415,131.001334 L113.464708,189.281063 L91.2318234,131.003488 C99.2268806,130.767043 106.328001,126.976058 111.004277,121.158933 Z M136.563158,124.436548 C147.480956,124.436548 156.331579,115.600422 156.331579,104.700508 C156.331579,93.8005928 147.480956,84.964467 136.563158,84.964467 C125.64536,84.964467 116.794737,93.8005928 116.794737,104.700508 C116.794737,115.600422 125.64536,124.436548 136.563158,124.436548 Z M113.5,88.2538071 C124.417798,88.2538071 133.268421,79.4176813 133.268421,68.5177665 C133.268421,57.6178517 124.417798,48.7817259 113.5,48.7817259 C102.582202,48.7817259 93.7315789,57.6178517 93.7315789,68.5177665 C93.7315789,79.4176813 102.582202,88.2538071 113.5,88.2538071 Z M90.4368421,124.436548 C101.35464,124.436548 110.205263,115.600422 110.205263,104.700508 C110.205263,93.8005928 101.35464,84.964467 90.4368421,84.964467 C79.5190441,84.964467 70.6684211,93.8005928 70.6684211,104.700508 C70.6684211,115.600422 79.5190441,124.436548 90.4368421,124.436548 Z" id="icecream_corn_1_L" sketch:type="MSShapeGroup"></path>
                <text id="ESTD" sketch:type="MSTextLayer" font-family="Lato" font-size="21.5172414" font-weight="260">
                    <tspan x="0.929824561" y="118.939086">ESTD</tspan>
                </text>
                <text id="2014" sketch:type="MSTextLayer" font-family="Lato" font-size="21.5172414" font-weight="260">
                    <tspan x="172.073099" y="118.939086">2014</tspan>
                </text>
                <text id="DESIGN" sketch:type="MSTextLayer" font-family="Lato" font-size="21.5172414" font-weight="bold">
                    <tspan x="73.2309942" y="237.720812">DESIGN</tspan>
                </text>
                <g id="Rectangle-7-+-Rectangle-8" transform="translate(63.163743, 261.492386)" sketch:type="MSShapeGroup">
                    <path d="M-8.52651283e-14,6.5370806 L6.54780583,5.68434189e-14 L100.672515,93.9705336 L94.1247088,100.507614 L-8.52651283e-14,6.5370806 L-8.52651283e-14,6.5370806 Z" id="Rectangle-7"></path>
                    <path d="M6.54780583,100.507614 L-7.81597009e-14,93.9705336 L94.1247088,4.97379915e-14 L100.672515,6.5370806 L6.54780583,100.507614 L6.54780583,100.507614 Z" id="Rectangle-8"></path>
                </g>
            </g>
        </g>
    </g>
</svg>